<svg xmlns:xlink="http://www.w3.org/1999/xlink" width="25px" height="25px" viewBox="0 0 25 25" version="1.1"
     xmlns="http://www.w3.org/2000/svg">
    <!-- Generator: Sketch 50.2 (55047) - http://www.bohemiancoding.com/sketch -->
    <desc>Created with Sketch.</desc>
    <defs>
        <path d="M42.434768,20.434768 L47.304304,20.434768 L47.304304,25.304276 L42.434768,25.304276 L42.434768,20.434768 Z M52.17384,20.434768 L57.04346,20.434768 L57.04346,25.304276 L52.17384,25.304276 L52.17384,20.434768 Z M61.912996,20.434768 L66.782504,20.434768 L66.782504,25.304276 L61.912996,25.304276 L61.912996,20.434768 Z M42.434768,30.173868 L47.304304,30.173868 L47.304304,35.04346 L42.434768,35.04346 L42.434768,30.173868 Z M52.17384,30.173868 L57.04346,30.173868 L57.04346,35.04346 L52.17384,35.04346 L52.17384,30.173868 Z M61.912996,30.173868 L66.782504,30.173868 L66.782504,35.04346 L61.912996,35.04346 L61.912996,30.173868 Z M42.434768,39.913024 L47.304304,39.913024 L47.304304,44.78256 L42.434768,44.78256 L42.434768,39.913024 Z M52.17384,39.913024 L57.04346,39.913024 L57.04346,44.78256 L52.17384,44.78256 L52.17384,39.913024 Z M61.912996,39.913024 L66.782504,39.913024 L66.782504,44.78256 L61.912996,44.78256 L61.912996,39.913024 Z"
              id="path-1"></path>
    </defs>
    <g id="Symbols" stroke="none" stroke-width="1" fill="none" fill-rule="evenodd">
        <g id="L---collapsed-nav---my-files-active" transform="translate(-42.000000, -20.000000)">
            <g id="Dashboard">
                <g>
                    <use fill="#4E84FD" xlink:href="#path-1"></use>
                    <use fill="#4E84FD" xlink:href="#path-1"></use>
                </g>
            </g>
        </g>
    </g>
</svg>