<svg xmlns:xlink="http://www.w3.org/1999/xlink" width="30px" height="30px" viewBox="0 0 30 30" version="1.1"
     xmlns="http://www.w3.org/2000/svg">
    <!-- Generator: Sketch 50.2 (55047) - http://www.bohemiancoding.com/sketch -->
    <desc>Created with Sketch.</desc>
    <defs></defs>
    <g id="Symbols" stroke="none" stroke-width="1" fill="none" fill-rule="evenodd">
        <g id="L---collapsed-nav---dashboard-active" transform="translate(-39.000000, -624.000000)" fill="#848DAF"
           fill-rule="nonzero">
            <g id="L---collapsed-nav">
                <path d="M54.0003905,624 C45.7157998,624 39,630.7158 39,639.00039 C39.000279,644.359514 41.8595952,649.311399 46.5008717,651.990719 C51.1421483,654.670039 56.8602649,654.669742 61.5012624,651.989938 C66.1422598,649.310135 69.0010602,644.357951 69.0007809,638.998828 C69.0007809,630.7158 62.2834186,624 54.0003905,624 Z M53.6847573,647.749056 C52.4628504,647.713117 51.600328,646.811531 51.6362664,645.606812 C51.6706423,644.422407 52.5534778,643.561447 53.7347586,643.561447 L53.8066354,643.564572 C55.0629181,643.60051 55.9160653,644.492721 55.8801269,645.731816 C55.8441885,646.919347 54.9769784,647.749056 53.7644468,647.749056 L53.6847573,647.749056 Z M58.9067682,637.544103 C58.6192607,637.950363 57.9879943,638.459751 57.1910985,639.08008 L56.3129507,639.684783 C55.8316881,640.059793 55.5410556,640.41449 55.4332403,640.759811 C55.345738,641.031693 55.3051119,641.105133 55.2972992,641.659835 L55.2972992,641.800463 L51.9456495,641.800463 L51.9550247,641.516081 C51.9972133,640.353551 52.0253391,639.666033 52.5081641,639.098831 C53.2659964,638.211307 54.9379149,637.133154 55.0082292,637.087841 C55.2375942,636.920273 55.4376909,636.715952 55.6004321,636.483137 C55.9520038,635.997187 56.1066953,635.615927 56.1066953,635.244043 C56.1066953,634.722154 55.9535663,634.239329 55.6488709,633.812755 C55.3551132,633.39712 54.7972862,633.190864 53.9910152,633.190864 C53.1909944,633.190864 52.6425426,633.443996 52.3159716,633.965884 C51.9784628,634.498711 51.8081459,635.059663 51.8081459,635.633115 L51.8081459,635.776869 L48.3533685,635.776869 L48.3596186,635.626865 C48.4486835,633.512748 49.2049531,631.98927 50.6018645,631.100185 C51.4815749,630.536108 52.5769159,630.250163 53.8535116,630.250163 C55.5223051,630.250163 56.9348419,630.656423 58.0442457,631.456444 C59.1708376,632.267403 59.7411649,633.483059 59.7411649,635.067476 C59.7396024,635.953436 59.4599076,636.78627 58.9067682,637.544103 Z"
                      id="Help-Icon"></path>
            </g>
        </g>
    </g>
</svg>