
<svg width="24px" height="29px" viewBox="0 0 24 29" version="1.1" xmlns="http://www.w3.org/2000/svg" xmlns:xlink="http://www.w3.org/1999/xlink">
    <!-- Generator: Sketch 50.2 (55047) - http://www.bohemiancoding.com/sketch -->
    <desc>Created with Sketch.</desc>
    <defs>
        <path d="M1.584,27 L20.4285714,27 C21.2949524,27 22,26.3510357 22,25.5535714 L22,7.23214286 C22,7.20996429 21.9895238,7.19067857 21.986381,7.16946429 C21.9834596,7.14925222 21.9789073,7.12926841 21.9727619,7.10967857 C21.9522372,7.02749105 21.9080948,6.95189052 21.8449524,6.89078571 L14.5126667,0.14175 C14.4295905,0.06950469 14.3234131,0.0238515543 14.2099048,0.0115714286 C14.1879048,0.00964285714 14.1669524,0 14.1428571,0 L1.57771429,0 C0.708190476,0 0,0.648964286 0,1.44642857 L0,25.5535714 C0,26.3510357 0.710285714,27 1.584,27 Z M14.4878049,1.44642857 L19.8536585,6.75 L14.994687,6.75 C14.7147437,6.75 14.4878049,6.52569528 14.4878049,6.24900138 L14.4878049,1.44642857 Z M1.07317073,1.4464279 C1.07317073,1.18028541 1.3103697,0.964285714 1.60190501,0.964285714 L13.6123235,0.964285714 L13.6123235,6.26784979 C13.6123235,7.06531297 14.315561,7.71427636 15.1797176,7.71427636 L20.9268293,7.71427636 L20.9268293,25.5535373 C20.9268293,25.8198171 20.6929139,26.0356795 20.4043646,26.0356795 L1.60817458,26.0356795 C1.46794263,26.0372231 1.33279076,25.9872912 1.23245592,25.89687 C1.13212107,25.8064489 1.0748237,25.6829468 1.07317073,25.5535373 L1.07317073,1.4464279 Z" id="path-1"></path>
    </defs>
    <g id="Symbols" stroke="none" stroke-width="1" fill="none" fill-rule="evenodd">
        <g id="L---collapsed-nav---my-files-active" transform="translate(-42.000000, -78.000000)" fill-rule="nonzero">
            <g id="Synthesize-Icon">
                <g transform="translate(43.000000, 79.000000)">
                    <g id="Group-2">
                        <g id="Shape">
                            <use stroke="#979797" fill="#4E84FD" fill-rule="evenodd" xlink:href="#path-1"></use>
                            <use stroke="#4E84FD" xlink:href="#path-1"></use>
                        </g>
                        <path d="M4.53846154,11 L17.4615385,11 C17.7589226,11 18,10.7761424 18,10.5 C18,10.2238576 17.7589226,10 17.4615385,10 L4.53846154,10 C4.24107744,10 4,10.2238576 4,10.5 C4,10.7761424 4.24107744,11 4.53846154,11 Z" id="Shape" stroke="#4E84FD" fill="#4E84FD"></path>
                        <path d="M4.53846154,15 L17.4615385,15 C17.7589226,15 18,14.7761424 18,14.5 C18,14.2238576 17.7589226,14 17.4615385,14 L4.53846154,14 C4.24107744,14 4,14.2238576 4,14.5 C4,14.7761424 4.24107744,15 4.53846154,15 Z" id="Shape" stroke="#4E84FD" fill="#4E84FD"></path>
                        <path d="M4.58333333,7 L10.4166667,7 C10.7388328,7 11,6.77614237 11,6.5 C11,6.22385763 10.7388328,6 10.4166667,6 L4.58333333,6 C4.26116723,6 4,6.22385763 4,6.5 C4,6.77614237 4.26116723,7 4.58333333,7 Z" id="Shape" stroke="#4E84FD" fill="#4E84FD"></path>
                        <path d="M4.53846154,19 L17.4615385,19 C17.7589226,19 18,18.7761424 18,18.5 C18,18.2238576 17.7589226,18 17.4615385,18 L4.53846154,18 C4.24107744,18 4,18.2238576 4,18.5 C4,18.7761424 4.24107744,19 4.53846154,19 Z" id="Shape" stroke="#4E84FD" fill="#4E84FD"></path>
                        <path d="M4.53846154,23 L17.4615385,23 C17.7589226,23 18,22.7761424 18,22.5 C18,22.2238576 17.7589226,22 17.4615385,22 L4.53846154,22 C4.24107744,22 4,22.2238576 4,22.5 C4,22.7761424 4.24107744,23 4.53846154,23 Z" id="Shape" stroke="#4E84FD" fill="#4E84FD"></path>
                    </g>
                </g>
            </g>
        </g>
    </g>
</svg>