
<svg width="98px" height="60px" viewBox="0 0 98 60" version="1.1" xmlns="http://www.w3.org/2000/svg" xmlns:xlink="http://www.w3.org/1999/xlink">
    <!-- Generator: Sketch 50.2 (55047) - http://www.bohemiancoding.com/sketch -->
    <desc>Created with Sketch.</desc>
    <defs></defs>
    <g id="MVP2-" stroke="none" stroke-width="1" fill="none" fill-rule="evenodd">
        <g id="Desktop---Collapsed-nav" transform="translate(-492.000000, -309.000000)" fill="#394F5A" fill-rule="nonzero">
            <g id="Record-a-Session" transform="translate(360.000000, 148.000000)">
                <path d="M190.571429,161 C186.959252,161 184,163.909536 184,167.46061 L184,186.84244 C184,190.393837 186.959252,193.303049 190.571429,193.303049 L207.725167,193.303049 L217.351285,202.539703 C217.824827,202.994834 218.530005,203.125978 219.13992,202.872341 C219.749835,202.618705 220.145248,202.029874 220.142857,201.378812 L220.142857,193.303049 L223.428571,193.303049 C227.040748,193.303049 230,190.393837 230,186.84244 L230,167.46061 C230,163.909536 227.040748,161 223.428571,161 L190.571429,161 Z M191.25,164 L223.75,164 C225.578652,164 227,165.399415 227,167.199394 L227,186.395759 C227,188.196058 225.578652,189.595153 223.75,189.595153 L218.875,189.595153 C217.977574,189.595241 217.25009,190.311398 217.25,191.19485 L217.25,197 L210.013673,190.051316 C209.711607,189.760443 209.306335,189.596824 208.883788,189.595153 L191.25,189.595153 C189.421348,189.595153 188,188.196058 188,186.395759 L188,167.199394 C188,165.399415 189.421348,164 191.25,164 Z M138.571429,177 C134.959253,177 132,179.909536 132,183.46061 L132,202.842439 C132,206.393836 134.959253,209.303048 138.571429,209.303048 L141.857143,209.303048 L141.857143,217.378811 C141.854752,218.029873 142.250164,218.618705 142.86008,218.872341 C143.469996,219.125978 144.175174,218.994833 144.648717,218.539701 L154.274833,209.303048 L171.428571,209.303048 C175.040748,209.303048 178,206.393836 178,202.842439 L178,183.46061 C178,179.909536 175.040748,177 171.428571,177 L138.571429,177 Z M138.25,180 L170.75,180 C172.578652,180 174,181.399415 174,183.199394 L174,202.395759 C174,204.196058 172.578652,205.595153 170.75,205.595153 L153.116211,205.595153 C152.693665,205.596825 152.288394,205.760443 151.986328,206.051316 L144.75,213 L144.75,207.19485 C144.74991,206.311398 144.022426,205.595241 143.125,205.595153 L138.25,205.595153 C136.421351,205.595153 135,204.196058 135,202.395759 L135,183.199394 C135,181.399415 136.421351,180 138.25,180 Z M194.693282,198.000311 C194.262248,198.010332 193.852025,198.182676 193.548978,198.48106 L188.49714,203.320159 C188.179106,203.624599 188,204.040508 188,204.474586 C188,204.908665 188.179106,205.324574 188.49714,205.629013 L193.548978,210.468113 C193.96332,210.912829 194.596489,211.098118 195.19424,210.949578 C195.791991,210.801039 196.256279,210.343035 196.400673,209.759476 C196.545066,209.175916 196.34588,208.562518 195.883097,208.165588 L193.718022,206.090783 L206.31186,206.090783 C206.912116,206.09904 207.470442,205.79221 207.773047,205.287785 C208.075651,204.783359 208.075651,204.159488 207.773047,203.655063 C207.470442,203.150637 206.912116,202.843807 206.31186,202.852064 L193.731025,202.852064 L195.883097,200.783585 C196.374908,200.320753 196.525516,199.61226 196.262754,198.997596 C195.999993,198.382932 195.377391,197.987314 194.693282,198.000311 Z M184.254705,208.000047 C184.703808,207.996721 185.135237,208.170098 185.451022,208.480806 L190.50286,213.320004 C190.820894,213.624449 191,214.040367 191,214.474454 C191,214.908541 190.820894,215.324458 190.50286,215.628904 L185.451022,220.468102 C185.03668,220.912827 184.403511,221.09812 183.80576,220.949577 C183.208009,220.801035 182.743721,220.343022 182.599327,219.75945 C182.454934,219.175879 182.65412,218.562469 183.116903,218.16553 L185.281978,216.090684 L172.68814,216.090684 C172.087884,216.09894 171.529558,215.792105 171.226953,215.287669 C170.924349,214.783233 170.924349,214.159349 171.226953,213.654914 C171.529558,213.150478 172.087884,212.843642 172.68814,212.851899 L185.268975,212.851899 L183.116903,210.783378 C182.632054,210.326929 182.478332,209.630886 182.727668,209.02095 C182.977005,208.411014 183.580084,208.007824 184.254705,208.000047 Z M200.5,176 C201.328427,176 202,176.671573 202,177.5 C202,178.328427 201.328427,179 200.5,179 C199.671573,179 199,178.328427 199,177.5 C199,176.671573 199.671573,176 200.5,176 Z M206.5,176 C207.328427,176 208,176.671573 208,177.5 C208,178.328427 207.328427,179 206.5,179 C205.671573,179 205,178.328427 205,177.5 C205,176.671573 205.671573,176 206.5,176 Z M213.5,176 C214.328427,176 215,176.671573 215,177.5 C215,178.328427 214.328427,179 213.5,179 C212.671573,179 212,178.328427 212,177.5 C212,176.671573 212.671573,176 213.5,176 Z M147.5,193 C148.328427,193 149,193.671573 149,194.5 C149,195.328427 148.328427,196 147.5,196 C146.671573,196 146,195.328427 146,194.5 C146,193.671573 146.671573,193 147.5,193 Z M154.5,193 C155.328427,193 156,193.671573 156,194.5 C156,195.328427 155.328427,196 154.5,196 C153.671573,196 153,195.328427 153,194.5 C153,193.671573 153.671573,193 154.5,193 Z M160.5,193 C161.328427,193 162,193.671573 162,194.5 C162,195.328427 161.328427,196 160.5,196 C159.671573,196 159,195.328427 159,194.5 C159,193.671573 159.671573,193 160.5,193 Z" id="Convo-icon"></path>
            </g>
        </g>
    </g>
</svg>