<svg xmlns:xlink="http://www.w3.org/1999/xlink" width="67px" height="64px" viewBox="0 0 67 64" version="1.1"
     xmlns="http://www.w3.org/2000/svg">
    <!-- Generator: Sketch 50.2 (55047) - http://www.bohemiancoding.com/sketch -->
    <desc>Created with Sketch.</desc>
    <defs></defs>
    <g id="MVP2-" stroke="none" stroke-width="1" fill="none" fill-rule="evenodd">
        <g id="Desktop---Collapsed-nav" transform="translate(-988.000000, -308.000000)">
            <g id="Synthesize" transform="translate(854.000000, 148.000000)">
                <g id="Synthesize-Icon" transform="translate(134.000000, 160.000000)">
                    <path d="M2.952,56 L38.0714286,56 C39.6860476,56 41,54.654 41,53 L41,15 C41,14.954 40.9804762,14.914 40.974619,14.87 C40.9691747,14.8280787 40.9606909,14.7866308 40.9492381,14.746 C40.9109876,14.575537 40.8287221,14.4187359 40.7110476,14.292 L27.0463333,0.294 C26.8915096,0.144157876 26.6936334,0.0494698905 26.4820952,0.024 C26.4410952,0.02 26.4020476,0 26.3571429,0 L2.94028571,0 C1.31980952,0 0,1.346 0,3 L0,53 C0,54.654 1.32371429,56 2.952,56 Z M27,3 L37,14 L27.9446439,14 C27.4229315,14 27,13.5347754 27,12.9608917 L27,3 Z M2,2.99999861 C2,2.44799938 2.44205263,2 2.98536842,2 L25.3684211,2 L25.3684211,12.9999848 C25.3684211,14.6539825 26.679,15.9999806 28.2894737,15.9999806 L39,15.9999806 L39,52.9999293 C39,53.5522133 38.5640667,53.9999279 38.0263158,53.9999279 L2.99705263,53.9999279 C2.73571126,54.0031295 2.48383733,53.8995669 2.29684966,53.7120267 C2.10986199,53.5244866 2.00308054,53.268334 2,52.9999293 L2,2.99999861 Z"
                          id="Shape" fill="#4E546C" fill-rule="nonzero"></path>
                    <path d="M9,24 L33,24 C33.5522847,24 34,23.5522847 34,23 C34,22.4477153 33.5522847,22 33,22 L9,22 C8.44771525,22 8,22.4477153 8,23 C8,23.5522847 8.44771525,24 9,24 Z"
                          id="Shape" fill="#4E546C" fill-rule="nonzero"></path>
                    <circle id="Oval-2" stroke="#4E84FD" fill="#4E84FD" cx="9" cy="22" r="2"></circle>
                    <circle id="Oval-2" stroke="#4E84FD" fill="#4E84FD" cx="33" cy="30" r="2"></circle>
                    <circle id="Oval-2" stroke="#4E84FD" fill="#4E84FD" cx="9" cy="38" r="2"></circle>
                    <circle id="Oval-2" stroke="#4E84FD" fill="#4E84FD" cx="33" cy="46" r="2"></circle>
                    <circle id="Oval-2" stroke="#4E84FD" fill="#4E84FD" cx="46" cy="38" r="2"></circle>
                    <circle id="Oval-2" stroke="#4E84FD" fill="#4E84FD" cx="53" cy="54" r="2"></circle>
                    <circle id="Oval-2" stroke="#4E84FD" fill="#4E84FD" cx="21" cy="38" r="2"></circle>
                    <path d="M9,32 L33,32 C33.5522847,32 34,31.5522847 34,31 C34,30.4477153 33.5522847,30 33,30 L9,30 C8.44771525,30 8,30.4477153 8,31 C8,31.5522847 8.44771525,32 9,32 Z"
                          id="Shape" fill="#4E546C" fill-rule="nonzero"></path>
                    <path d="M9,16 L19,16 C19.5522847,16 20,15.5522847 20,15 C20,14.4477153 19.5522847,14 19,14 L9,14 C8.44771525,14 8,14.4477153 8,15 C8,15.5522847 8.44771525,16 9,16 Z"
                          id="Shape" fill="#4E546C" fill-rule="nonzero"></path>
                    <path d="M9,40 L33,40 C33.5522847,40 34,39.5522847 34,39 C34,38.4477153 33.5522847,38 33,38 L9,38 C8.44771525,38 8,38.4477153 8,39 C8,39.5522847 8.44771525,40 9,40 Z"
                          id="Shape" fill="#4E546C" fill-rule="nonzero"></path>
                    <path d="M9,48 L33,48 C33.5522847,48 34,47.5522847 34,47 C34,46.4477153 33.5522847,46 33,46 L9,46 C8.44771525,46 8,46.4477153 8,47 C8,47.5522847 8.44771525,48 9,48 Z"
                          id="Shape" fill="#4E546C" fill-rule="nonzero"></path>
                    <path d="M42.5952381,10 L51.3809524,10 L51.3809524,21 C51.3809524,22.654 52.6949048,24 54.3095238,24 L65.047619,24 L65.047619,61 C65.047619,61.5522847 64.6105637,62 64.0714286,62 L28.952,62 C28.6899859,62.0032015 28.4374637,61.8996389 28.2499947,61.7120984 C28.0625257,61.524558 27.9554694,61.2684051 27.952381,61 L27.952381,59 C27.952381,58.4477153 27.5153256,58 26.9761905,58 C26.4370554,58 26,58.4477153 26,59 L26,61 C26,62.654 27.3237143,64 28.952,64 L64.0714286,64 C65.6860476,64 67,62.654 67,61 L67,23 C67,22.954 66.9804762,22.914 66.974619,22.87 C66.9691747,22.8280787 66.9606909,22.7866308 66.9492381,22.746 C66.9109876,22.575537 66.8287221,22.4187359 66.7110476,22.292 L53.0463333,8.294 C52.8925561,8.14291254 52.6940232,8.048614 52.4820952,8.026 C52.4410952,8.02 52.4020476,8 52.3571429,8 L42.5952381,8 C42.056103,8 41.6190476,8.44771525 41.6190476,9 C41.6190476,9.55228475 42.056103,10 42.5952381,10 Z M53.9446439,22 C53.4229315,22 53,21.5347754 53,20.9608917 L53,11 L63,22 L53.9446439,22 Z"
                          id="Shape" fill="#4E546C" fill-rule="nonzero"></path>
                    <path d="M46,32 L58,32 C58.5522847,32 59,31.5522847 59,31 C59,30.4477153 58.5522847,30 58,30 L46,30 C45.4477153,30 45,30.4477153 45,31 C45,31.5522847 45.4477153,32 46,32 Z"
                          id="Shape" fill="#4E546C" fill-rule="nonzero"></path>
                    <path d="M46,40 L58,40 C58.5522847,40 59,39.5522847 59,39 C59,38.4477153 58.5522847,38 58,38 L46,38 C45.4477153,38 45,38.4477153 45,39 C45,39.5522847 45.4477153,40 46,40 Z"
                          id="Shape" fill="#4E546C" fill-rule="nonzero"></path>
                    <path d="M46,48 L58,48 C58.5522847,48 59,47.5522847 59,47 C59,46.4477153 58.5522847,46 58,46 L46,46 C45.4477153,46 45,46.4477153 45,47 C45,47.5522847 45.4477153,48 46,48 Z"
                          id="Shape" fill="#4E546C" fill-rule="nonzero"></path>
                    <path d="M46,56 L58,56 C58.5522847,56 59,55.5522847 59,55 C59,54.4477153 58.5522847,54 58,54 L46,54 C45.4477153,54 45,54.4477153 45,55 C45,55.5522847 45.4477153,56 46,56 Z"
                          id="Shape" fill="#4E546C" fill-rule="nonzero"></path>
                </g>
            </g>
        </g>
    </g>
</svg>