<svg xmlns:xlink="http://www.w3.org/1999/xlink" width="25px" height="22px" viewBox="0 0 25 22" version="1.1"
     xmlns="http://www.w3.org/2000/svg">
    <!-- Generator: Sketch 50.2 (55047) - http://www.bohemiancoding.com/sketch -->
    <desc>Created with Sketch.</desc>
    <defs></defs>
    <g id="MVP-v2-master" stroke="none" stroke-width="1" fill="none" fill-rule="evenodd" opacity="0.9">
        <g id="Play---Page-with-Otranscribe-functionality" transform="translate(-1346.000000, -199.000000)"
           fill="#FFFFFF" fill-rule="nonzero">
            <g id="OPTIONS" transform="translate(-1540.000000, -986.000000)">
                <g id="ICONS" transform="translate(2833.000000, 1175.000000)">
                    <g id="Add-Icon-copy">
                        <g id="Group-6">
                            <g id="History,-Clock,-Reload,-Refresh,-Recycle,-Schedule"
                               transform="translate(53.000000, 10.000000)">
                                <g id="Group">
                                    <path d="M14.2627317,0 C8.35605807,0 3.58322834,4.78470244 3.58322834,10.6854397 L0.0214151105,10.6854397 L4.64583595,15.3098605 L4.72894493,15.4820148 L9.51958372,10.6854397 L5.95777049,10.6854397 C5.95777049,6.09663698 9.67986532,2.37454215 14.268668,2.37454215 C18.8574707,2.37454215 22.5795656,6.09663698 22.5795656,10.6854397 C22.5795656,15.2742424 18.8574707,18.9963372 14.268668,18.9963372 C11.9712985,18.9963372 9.89951046,18.0583931 8.39761255,16.5564952 L6.71762398,18.2364837 C8.64693948,20.1717356 11.312363,21.3708794 14.2627317,21.3708794 C20.1694053,21.3708794 24.9541077,16.5861769 24.9541077,10.6854397 C24.9541077,4.78470244 20.1694053,0 14.2627317,0 Z M13.0813969,5.93635538 L13.0813969,11.8727108 L18.1629172,14.8883793 L19.0177523,13.4458449 L14.8623036,10.9822575 L14.8623036,5.93635538 L13.0813969,5.93635538 Z"
                                          id="Shape"></path>
                                </g>
                            </g>
                        </g>
                    </g>
                </g>
            </g>
        </g>
    </g>
</svg>