<svg xmlns:xlink="http://www.w3.org/1999/xlink" width="31px" height="30px" viewBox="0 0 31 30" version="1.1"
     xmlns="http://www.w3.org/2000/svg">
    <!-- Generator: Sketch 50.2 (55047) - http://www.bohemiancoding.com/sketch -->
    <desc>Created with Sketch.</desc>
    <defs></defs>
    <g id="MVP-v2-master-GRID" stroke="none" stroke-width="1" fill="none" fill-rule="evenodd">
        <g id="Dashboard" transform="translate(-974.000000, -340.000000)">
            <g id="Group-3" transform="translate(372.000000, 272.000000)">
                <g id="Group" transform="translate(480.000000, 66.000000)">
                    <g id="Group-6" transform="translate(121.000000, 0.000000)">
                        <path d="M16.797495,1.999965 C25.0932,1.999965 31.818336,8.715729 31.818336,16.999983 C31.818336,25.284237 25.0932,31.999935 16.797495,31.999935 C8.501823,31.999935 1.776687,25.284237 1.776687,16.999983 C1.776687,8.715729 8.501823,1.999965 16.797495,1.999965 Z"
                              id="Ellipse-3" fill="#000000" opacity="0.1"></path>
                        <path d="M19.8524777,13.1966505 L16.9998799,16.0491626 L14.1472822,13.1966505 C13.8850737,12.9344498 13.4595852,12.9344498 13.1973767,13.1966505 C12.9342078,13.4588511 12.9342078,13.8852872 13.1973767,14.1474878 L16.049014,17 L13.1973767,19.8525122 C12.9342078,20.1147128 12.9342078,20.5401885 13.1973767,20.8033495 C13.4595852,21.0655502 13.8850737,21.0655502 14.1472822,20.8033495 L16.9998799,17.9508374 L19.8524777,20.8033495 C20.1156467,21.0655502 20.5411352,21.0655502 20.8033436,20.8033495 C21.0655521,20.5401885 21.0655521,20.1147128 20.8033436,19.8525122 L17.9507459,17 L20.8033436,14.1474878 C21.0655521,13.8852872 21.0655521,13.4588511 20.8033436,13.1966505 C20.5411352,12.9344498 20.1156467,12.9344498 19.8524777,13.1966505 Z"
                              id="Path" stroke="#FFFFFF" fill="#FFFFFF"></path>
                    </g>
                </g>
            </g>
        </g>
    </g>
</svg>