<svg xmlns:xlink="http://www.w3.org/1999/xlink" width="31px" height="30px" viewBox="0 0 31 30" version="1.1"
     xmlns="http://www.w3.org/2000/svg">
    <!-- Generator: Sketch 50.2 (55047) - http://www.bohemiancoding.com/sketch -->
    <desc>Created with Sketch.</desc>
    <defs></defs>
    <g id="MVP-v2-master" stroke="none" stroke-width="1" fill="none" fill-rule="evenodd">
        <g id="Step-4:-Live-Recording-with-active-buttons" transform="translate(-906.000000, -505.000000)">
            <g id="lightbox" transform="translate(425.000000, 141.000000)">
                <g id="Group-7" transform="translate(156.000000, 362.000000)">
                    <g id="Group" transform="translate(247.000000, 0.000000)">
                        <g id="cross_icon" transform="translate(77.000000, 0.000000)">
                            <path d="M16.797495,1.999965 C25.0932,1.999965 31.818336,8.715729 31.818336,16.999983 C31.818336,25.284237 25.0932,31.999935 16.797495,31.999935 C8.501823,31.999935 1.776687,25.284237 1.776687,16.999983 C1.776687,8.715729 8.501823,1.999965 16.797495,1.999965 Z"
                                  id="Ellipse-3" fill="#000000" opacity="0.1"></path>
                            <path d="M20.1344999,13.20475 L17.1644999,16.1747499 L14.1945,13.20475 C13.9215,12.93175 13.4785,12.93175 13.2055,13.20475 C12.9315,13.47775 12.9315,13.92175 13.2055,14.19475 L16.1744999,17.1647499 L13.2055,20.1347499 C12.9315,20.4077499 12.9315,20.8507499 13.2055,21.1247499 C13.4785,21.3977499 13.9215,21.3977499 14.1945,21.1247499 L17.1644999,18.1547499 L20.1344999,21.1247499 C20.4084999,21.3977499 20.8514999,21.3977499 21.1244999,21.1247499 C21.3974999,20.8507499 21.3974999,20.4077499 21.1244999,20.1347499 L18.1544999,17.1647499 L21.1244999,14.19475 C21.3974999,13.92175 21.3974999,13.47775 21.1244999,13.20475 C20.8514999,12.93175 20.4084999,12.93175 20.1344999,13.20475 Z"
                                  id="Path" stroke="#FFFFFF" fill="#FFFFFF"></path>
                        </g>
                    </g>
                </g>
            </g>
        </g>
    </g>
</svg>