
<svg width="15px" height="18px" viewBox="0 0 15 18" version="1.1" xmlns="http://www.w3.org/2000/svg" xmlns:xlink="http://www.w3.org/1999/xlink">
    <!-- Generator: Sketch 50.2 (55047) - http://www.bohemiancoding.com/sketch -->
    <desc>Created with Sketch.</desc>
    <defs></defs>
    <g id="MVP-v2-master-GRID" stroke="none" stroke-width="1" fill="none" fill-rule="evenodd">
        <g id="Tablet---Live-recording" transform="translate(-644.000000, -254.000000)" fill="#414965" fill-rule="nonzero">
            <g id="Group-2" transform="translate(68.000000, 228.000000)">
                <g id="Group" transform="translate(555.000000, 26.000000)">
                    <g id="Trash" transform="translate(21.000000, 0.000000)">
                        <g id="Layer_1">
                            <path d="M14.8535065,3.24467532 C14.7412987,2.8238961 14.6664935,2.59012987 14.6664935,2.59012987 C14.5449351,2.15532468 14.2363636,2.15532468 13.7781818,2.08051948 L11.2955844,1.76727273 C10.987013,1.71584416 10.987013,1.71584416 10.8654545,1.44935065 C10.4587013,0.532987013 10.3324675,0 9.88831169,0 L5.07272727,0 C4.62857143,0 4.50701299,0.532987013 4.10025974,1.45402597 C3.9787013,1.71584416 3.9787013,1.71584416 3.67012987,1.77194805 L1.18285714,2.08519481 C0.729350649,2.16 0.402077922,2.20207792 0.280519481,2.63688312 C0.280519481,2.63688312 0.224415584,2.82857143 0.107532468,3.24467532 C-0.0420779221,3.80103896 -0.102857143,3.74025974 0.411428571,3.74025974 L14.5496104,3.74025974 C15.0638961,3.74493506 15.0077922,3.80103896 14.8535065,3.24467532 Z" id="Shape"></path>
                            <path d="M13.2498701,5.23636364 L1.71116883,5.23636364 C0.935064935,5.23636364 0.897662338,5.33922078 0.944415584,5.92363636 L1.8187013,17.265974 C1.89350649,17.841039 1.94961039,17.9579221 2.63688312,17.9579221 L12.3241558,17.9579221 C13.0114286,17.9579221 13.0675325,17.841039 13.1423377,17.265974 L14.0166234,5.92363636 C14.0633766,5.33454545 14.025974,5.23636364 13.2498701,5.23636364 Z" id="Shape"></path>
                        </g>
                    </g>
                </g>
            </g>
        </g>
    </g>
</svg>