<svg xmlns:xlink="http://www.w3.org/1999/xlink" width="19px" height="20px" viewBox="0 0 19 20" version="1.1"
     xmlns="http://www.w3.org/2000/svg">
    <!-- Generator: Sketch 50.2 (55047) - http://www.bohemiancoding.com/sketch -->
    <desc>Created with Sketch.</desc>
    <defs></defs>
    <g id="MVP-v2-master-GRID" stroke="none" stroke-width="1" fill="none" fill-rule="evenodd">
        <g id="Dashboard" transform="translate(-1122.000000, -245.000000)" fill="#848DAF" fill-rule="nonzero">
            <g id="Documents" transform="translate(1122.000000, 245.000000)">
                <g id="Layer_1">
                    <g id="Group">
                        <path d="M0.816978085,17.3561037 L10.5364237,17.3561037 C10.9832762,17.3561037 11.3469179,16.9389374 11.3469179,16.4263125 L11.3469179,4.64895636 C11.3469179,4.63469956 11.3415146,4.62230234 11.3398936,4.6086654 C11.3383868,4.59567271 11.3360389,4.58282674 11.3328693,4.57023403 C11.3222833,4.51740235 11.299516,4.46880493 11.2669491,4.42952562 L7.48518348,0.0911195446 C7.44233538,0.0446789115 7.38757234,0.0153322241 7.32902827,0.00743833017 C7.31768136,0.00619860848 7.30687477,0 7.29444719,0 L0.813736109,0 C0.365262689,0 0,0.41716635 0,0.929791271 L0,16.4263125 C0,16.9389374 0.366343348,17.3561037 0.816978085,17.3561037 Z M7.5646119,1.05810247 L10.4245755,4.33902593 L7.83477661,4.33902593 C7.68556876,4.33902593 7.5646119,4.20026536 7.5646119,4.02909551 L7.5646119,1.05810247 Z M0.540329422,0.929791271 C0.540329422,0.758709677 0.6629842,0.619860848 0.813736109,0.619860848 L7.02428248,0.619860848 L7.02428248,4.02909551 C7.02428248,4.54172043 7.38792418,4.95888678 7.83477661,4.95888678 L10.8065884,4.95888678 L10.8065884,16.4263125 C10.8065884,16.5974823 10.6856316,16.7362429 10.5364237,16.7362429 L0.816978085,16.7362429 C0.744464621,16.7372351 0.674578053,16.7051379 0.622695247,16.6470134 C0.57081244,16.5888889 0.541184168,16.5094994 0.540329422,16.4263125 L0.540329422,0.929791271 Z"
                              id="Shape"></path>
                        <path d="M2.49238693,7.28652751 L8.97633999,7.28652751 C9.12554784,7.28652751 9.2465047,7.14776694 9.2465047,6.97659709 C9.2465047,6.80542724 9.12554784,6.66666667 8.97633999,6.66666667 L2.49238693,6.66666667 C2.34317908,6.66666667 2.22222222,6.80542724 2.22222222,6.97659709 C2.22222222,7.14776694 2.34317908,7.28652751 2.49238693,7.28652751 Z"
                              id="Shape"></path>
                        <path d="M2.49238693,10.2494905 L8.97633999,10.2494905 C9.12554784,10.2494905 9.2465047,10.1107299 9.2465047,9.93956005 C9.2465047,9.76839021 9.12554784,9.62962963 8.97633999,9.62962963 L2.49238693,9.62962963 C2.34317908,9.62962963 2.22222222,9.76839021 2.22222222,9.93956005 C2.22222222,10.1107299 2.34317908,10.2494905 2.49238693,10.2494905 Z"
                              id="Shape"></path>
                        <path d="M2.49238693,5.06430529 L5.19403404,5.06430529 C5.34324189,5.06430529 5.46419875,4.92554471 5.46419875,4.75437487 C5.46419875,4.58320502 5.34324189,4.44444444 5.19403404,4.44444444 L2.49238693,4.44444444 C2.34317908,4.44444444 2.22222222,4.58320502 2.22222222,4.75437487 C2.22222222,4.92554471 2.34317908,5.06430529 2.49238693,5.06430529 Z"
                              id="Shape"></path>
                        <path d="M2.49238693,12.4717127 L8.97633999,12.4717127 C9.12554784,12.4717127 9.2465047,12.3329521 9.2465047,12.1617823 C9.2465047,11.9906124 9.12554784,11.8518519 8.97633999,11.8518519 L2.49238693,11.8518519 C2.34317908,11.8518519 2.22222222,11.9906124 2.22222222,12.1617823 C2.22222222,12.3329521 2.34317908,12.4717127 2.49238693,12.4717127 Z"
                              id="Shape"></path>
                        <path d="M2.49238693,14.6939349 L8.97633999,14.6939349 C9.12554784,14.6939349 9.2465047,14.5551743 9.2465047,14.3840045 C9.2465047,14.2128347 9.12554784,14.0740741 8.97633999,14.0740741 L2.49238693,14.0740741 C2.34317908,14.0740741 2.22222222,14.2128347 2.22222222,14.3840045 C2.22222222,14.5551743 2.34317908,14.6939349 2.49238693,14.6939349 Z"
                              id="Shape"></path>
                        <path d="M11.2594667,2.84208307 L13.6909491,2.84208307 L13.6909491,6.25131773 C13.6909491,6.76394265 14.0545908,7.181109 14.5014433,7.181109 L17.4732551,7.181109 L17.4732551,18.6485347 C17.4732551,18.8197045 17.3522982,18.9584651 17.2030904,18.9584651 L7.48364475,18.9584651 C7.41113129,18.9594574 7.34124472,18.9273601 7.28936191,18.8692357 C7.23747911,18.8111112 7.20785083,18.7317216 7.20699609,18.6485347 L7.20699609,18.0286738 C7.20699609,17.857504 7.08603923,17.7187434 6.93683138,17.7187434 C6.78762353,17.7187434 6.66666667,17.857504 6.66666667,18.0286738 L6.66666667,18.6485347 C6.66666667,19.1611596 7.03301001,19.578326 7.48364475,19.578326 L17.2030904,19.578326 C17.6499428,19.578326 18.0135845,19.1611596 18.0135845,18.6485347 L18.0135845,6.87117858 C18.0135845,6.85692178 18.0081812,6.84452456 18.0065602,6.83088762 C18.0050535,6.81789493 18.0027056,6.80504896 17.999536,6.79245625 C17.98895,6.73962458 17.9661827,6.69102715 17.9336158,6.65174784 L14.1518501,2.31334177 C14.1092917,2.26651517 14.0543469,2.23728918 13.9956949,2.23028041 C13.984348,2.22842083 13.9735414,2.22222222 13.9611139,2.22222222 L11.2594667,2.22222222 C11.1102589,2.22222222 10.989302,2.3609828 10.989302,2.53215265 C10.989302,2.70332249 11.1102589,2.84208307 11.2594667,2.84208307 Z M14.5014433,6.56124816 C14.3522354,6.56124816 14.2312786,6.42248758 14.2312786,6.25131773 L14.2312786,3.28032469 L17.0912422,6.56124816 L14.5014433,6.56124816 Z"
                              id="Shape"></path>
                        <path d="M12.8627573,10.2494905 L16.1047338,10.2494905 C16.2539417,10.2494905 16.3748985,10.1107299 16.3748985,9.93956005 C16.3748985,9.76839021 16.2539417,9.62962963 16.1047338,9.62962963 L12.8627573,9.62962963 C12.7135495,9.62962963 12.5925926,9.76839021 12.5925926,9.93956005 C12.5925926,10.1107299 12.7135495,10.2494905 12.8627573,10.2494905 Z"
                              id="Shape"></path>
                        <path d="M12.8627573,12.4717127 L16.1047338,12.4717127 C16.2539417,12.4717127 16.3748985,12.3329521 16.3748985,12.1617823 C16.3748985,11.9906124 16.2539417,11.8518519 16.1047338,11.8518519 L12.8627573,11.8518519 C12.7135495,11.8518519 12.5925926,11.9906124 12.5925926,12.1617823 C12.5925926,12.3329521 12.7135495,12.4717127 12.8627573,12.4717127 Z"
                              id="Shape"></path>
                        <path d="M12.8627573,14.6939349 L16.1047338,14.6939349 C16.2539417,14.6939349 16.3748985,14.5551743 16.3748985,14.3840045 C16.3748985,14.2128347 16.2539417,14.0740741 16.1047338,14.0740741 L12.8627573,14.0740741 C12.7135495,14.0740741 12.5925926,14.2128347 12.5925926,14.3840045 C12.5925926,14.5551743 12.7135495,14.6939349 12.8627573,14.6939349 Z"
                              id="Shape"></path>
                        <path d="M12.8627573,17.6568979 L16.1047338,17.6568979 C16.2539417,17.6568979 16.3748985,17.5181373 16.3748985,17.3469675 C16.3748985,17.1757976 16.2539417,17.037037 16.1047338,17.037037 L12.8627573,17.037037 C12.7135495,17.037037 12.5925926,17.1757976 12.5925926,17.3469675 C12.5925926,17.5181373 12.7135495,17.6568979 12.8627573,17.6568979 Z"
                              id="Shape"></path>
                    </g>
                </g>
            </g>
        </g>
    </g>
</svg>