
<svg width="29px" height="29px" viewBox="0 0 29 29" version="1.1" xmlns="http://www.w3.org/2000/svg" xmlns:xlink="http://www.w3.org/1999/xlink">
    <!-- Generator: Sketch 50.2 (55047) - http://www.bohemiancoding.com/sketch -->
    <desc>Created with Sketch.</desc>
    <defs></defs>
    <g id="MVP2-" stroke="none" stroke-width="1" fill="none" fill-rule="evenodd">
        <g id="Tablet---Dashboard" transform="translate(-644.000000, -684.000000)">
            <g id="Group-6" transform="translate(644.000000, 684.000000)">
                <path d="M14.30507,0.39482 C22.02098,0.39482 28.25774,6.63191 28.25774,14.34827 C28.25774,22.06466 22.02098,28.30175 14.30507,28.30175 C6.58985,28.30175 0.35255,22.06466 0.35255,14.34827 C0.35255,6.63191 6.58985,0.39482 14.30507,0.39482 Z" id="Rectangle-26-Copy" fill="#C0C5D8"></path>
                <g id="White-card-menu-" transform="translate(14.000000, 15.000000) rotate(-270.000000) translate(-14.000000, -15.000000) translate(5.000000, 13.000000)" fill="#FFFFFF">
                    <path d="M16.1998589,3.33066907e-15 C17.194009,3.33066907e-15 17.9998646,0.8954368 17.9998646,2 C17.9998646,3.1045632 17.194009,4 16.1998589,4 C15.2057894,4 14.3998733,3.1045632 14.3998733,2 C14.3998733,0.8954368 15.2057894,3.33066907e-15 16.1998589,3.33066907e-15 Z M8.99989632,3.33066907e-15 C9.99398592,3.33066907e-15 10.7998819,0.8954368 10.7998819,2 C10.7998819,3.1045632 9.99398592,4 8.99989632,4 C8.00574624,4 7.19991072,3.1045632 7.19991072,2 C7.19991072,0.8954368 8.00574624,3.33066907e-15 8.99989632,3.33066907e-15 Z M1.79985312,3.33066907e-15 C2.7940032,3.33066907e-15 3.59991936,0.8954368 3.59991936,2 C3.59991936,3.1045632 2.7940032,4 1.79985312,4 C0.80578368,4 -0.00013248,3.1045632 -0.00013248,2 C-0.00013248,0.8954368 0.80578368,3.33066907e-15 1.79985312,3.33066907e-15 Z" id="Menu-"></path>
                </g>
            </g>
        </g>
    </g>
</svg>