
<svg width="13px" height="19px" viewBox="0 0 13 19" version="1.1" xmlns="http://www.w3.org/2000/svg" xmlns:xlink="http://www.w3.org/1999/xlink">
    <!-- Generator: Sketch 50.2 (55047) - http://www.bohemiancoding.com/sketch -->
    <desc>Created with Sketch.</desc>
    <defs></defs>
    <g id="MVP-v2-master" stroke="none" stroke-width="1" fill="none" fill-rule="evenodd">
        <g id="Pause---Page-with-Otranscribe-functionality" transform="translate(-859.000000, -137.000000)" fill="#3C425B">
            <g id="Group-5" transform="translate(213.000000, 117.000000)">
                <g id="Download" transform="translate(646.000000, 20.000000)">
                    <path d="M12.3484848,3.56060606 L12.3484848,15.5606061 L15.3484848,15.5606061 L15.3484848,3.56060606 L12.3484848,3.56060606 Z M3.13636364,11.1060606 L-2.34848485,11.1060606 L-2.34848485,8.01515152 L3.13636364,8.01515152 L3.13636364,4.21183638 C3.13636364,3.70619358 3.52549518,3.39436247 3.8305315,3.65422172 L8.96286316,8.01515152 L9.65151515,8.01515152 L9.65151515,8.60029744 L10.1254414,9.00299141 C10.4228327,9.25635418 10.4228327,9.86485794 10.1254414,10.1182207 L9.65151515,10.5209147 L9.65151515,11.1060606 L8.96286316,11.1060606 L3.8305315,15.4669904 C3.52549518,15.7268497 3.13636364,15.4150185 3.13636364,14.9093757 L3.13636364,11.1060606 Z" id="Forward-Copy" transform="translate(6.500000, 9.560606) rotate(-270.000000) translate(-6.500000, -9.560606) "></path>
                </g>
            </g>
        </g>
    </g>
</svg>