
<svg width="21px" height="21px" viewBox="0 0 21 21" version="1.1" xmlns="http://www.w3.org/2000/svg" xmlns:xlink="http://www.w3.org/1999/xlink">
    <!-- Generator: Sketch 50.2 (55047) - http://www.bohemiancoding.com/sketch -->
    <desc>Created with Sketch.</desc>
    <defs></defs>
    <g id="MVP-v2-master-GRID" stroke="none" stroke-width="1" fill="none" fill-rule="evenodd">
        <g id="Dashboard" transform="translate(-904.000000, -526.000000)" fill="#FFFFFF" fill-rule="nonzero">
            <g id="Group" transform="translate(251.000000, 141.000000)">
                <g id="Group-9" transform="translate(601.000000, 124.000000)">
                    <g id="Group-7" transform="translate(52.000000, 261.000000)">
                        <g id="Google">
                            <path d="M10.7148557,8.65105193 L10.7148557,12.6630044 L16.5455132,12.6630044 C15.785035,15.0942304 13.7119772,16.8343658 10.7148557,16.8343658 C7.14626075,16.833839 4.25332658,13.9983122 4.25225142,10.5000055 C4.25199311,8.81969792 4.93278971,7.20813866 6.14481911,6.01998176 C7.3568485,4.83182486 9.00078727,4.16443742 10.7148557,4.16469065 C12.3195523,4.16469065 13.7840328,4.74314489 14.9135523,5.69387166 L17.9262534,2.7366914 C15.9560742,0.972622737 13.3831578,-0.00378294524 10.7148557,1.10150719e-05 C4.79656297,1.10150719e-05 0,4.70209946 0,10.5000055 C0,16.2979116 4.79656297,21 10.7148557,21 C19.7062204,21 21.691643,12.7555952 20.8094493,8.66537011 L10.7148557,8.65105193 Z" id="surface1"></path>
                        </g>
                    </g>
                </g>
            </g>
        </g>
    </g>
</svg>