
<svg width="17px" height="25px" viewBox="0 0 17 25" version="1.1" xmlns="http://www.w3.org/2000/svg" xmlns:xlink="http://www.w3.org/1999/xlink">
    <!-- Generator: Sketch 50.2 (55047) - http://www.bohemiancoding.com/sketch -->
    <desc>Created with Sketch.</desc>
    <defs></defs>
    <g id="MVP-v2-master" stroke="none" stroke-width="1" fill="none" fill-rule="evenodd">
        <g id="Play---Page-with-Otranscribe-functionality" transform="translate(-1352.000000, -302.000000)" fill="#FFFFFF" fill-rule="nonzero" stroke="#FFFFFF">
            <g id="Lightbulb" transform="translate(1360.500000, 314.500000) scale(-1, 1) translate(-1360.500000, -314.500000) translate(1353.000000, 303.000000)">
                <g id="Layer_1">
                    <g id="Group">
                        <path d="M7.5,0 C3.89318182,0 0,2.7812175 0,7.27375 C0,9.49092125 0.909545455,11.3563075 2.65636364,12.77006 C2.67450388,12.7920824 2.69560003,12.8116526 2.71909091,12.82825 C4.01522727,14.1917475 4.08068182,14.4509575 4.08954545,15.0507113 C4.09363636,15.2881 4.09159091,15.3581925 4.08954545,15.396545 L4.08681818,15.5347463 C4.07659091,15.8336313 4.06090909,16.3341975 4.69977273,16.523315 L10.2184091,17.7010013 C10.4023576,17.7400775 10.5841401,17.6271337 10.6244318,17.4487344 C10.6647235,17.270335 10.5482666,17.0940362 10.3643182,17.05496 L4.87227273,15.8838863 C4.76659091,15.8528075 4.75772727,15.8501625 4.76727273,15.5545838 L4.76931818,15.428285 C4.76931818,15.428285 4.77613636,15.3767075 4.77068182,15.0407925 C4.75772727,14.2016663 4.56954545,13.79632 3.19636364,12.3567788 C3.17017306,12.3254183 3.13828372,12.2989732 3.10227273,12.2787513 C1.49590909,10.9542675 0.681818182,9.270725 0.681818182,7.27375 C0.681818182,3.18920875 4.22045455,0.66125 7.5,0.66125 C10.8518182,0.66125 14.3181818,3.13498625 14.3181818,7.27375 C14.3181818,9.9042025 13.0036364,11.3543238 11.9195455,12.2668488 C11.881723,12.2844882 11.8477085,12.308949 11.8193182,12.338925 C10.4304545,13.79632 10.2422727,14.2016663 10.2293182,15.0407925 L10.2293182,15.1089013 L10.2286364,15.132045 C10.2265909,15.1823 10.2190909,15.2100725 10.2197727,15.2206525 C10.1931695,15.2167633 10.1665784,15.2127957 10.14,15.20875 L7.27977273,14.5560963 C7.16114431,14.5290465 7.03664742,14.5654299 6.95317882,14.6515411 C6.86971023,14.7376523 6.83995081,14.860409 6.87511064,14.9735699 C6.91027047,15.0867308 7.00500794,15.1731041 7.12363636,15.2001538 L9.94909091,15.8428888 C9.98659091,15.8561138 10.3261364,15.9632363 10.6125,15.7681675 C10.7372727,15.6828663 10.8825,15.51557 10.9084091,15.195525 L10.9104545,15.1644463 L10.9118182,15.0989825 L10.9111364,15.08179 L10.9118182,15.0513725 C10.9206818,14.454925 10.9847727,14.195715 12.2788636,12.8322175 C12.285,12.8275888 12.2918182,12.82296 12.2972727,12.81767 C14.1156818,11.3358088 15,9.522 15,7.27375 C15,2.72104375 11.1865909,0 7.5,0 Z" id="Shape"></path>
                        <path d="M10.2272727,20.426875 C10.3866429,20.4271393 10.5247562,20.3198719 10.5593182,20.1689875 C10.5794638,20.0834807 10.5636773,19.9937135 10.5154462,19.9195169 C10.4672151,19.8453203 10.3905087,19.7928005 10.3022727,19.77356 L4.84772727,18.5740525 C4.66620197,18.5384041 4.48853642,18.6498347 4.4475942,18.8250132 C4.40665198,19.0001917 4.51741237,19.1750266 4.69704545,19.2187712 L10.1515909,20.4182788 C10.176387,20.4239924 10.2017864,20.4268773 10.2272727,20.426875 Z" id="Shape"></path>
                        <path d="M5.18795455,21.3825825 C5.06725057,21.3516217 4.93875149,21.3871306 4.85300094,21.4751422 C4.7672504,21.5631539 4.73796834,21.6895865 4.77667253,21.8047093 C4.81537673,21.9198321 4.91587456,22.0052256 5.03863636,22.0273012 L9.47045455,22.9914037 C9.65067352,23.0238116 9.82505853,22.912218 9.86522761,22.7387778 C9.9053967,22.5653377 9.79697073,22.3921367 9.61977273,22.346685 L5.18795455,21.3825825 Z" id="Shape"></path>
                    </g>
                </g>
            </g>
        </g>
    </g>
</svg>