
<svg width="25px" height="6px" viewBox="0 0 25 6" version="1.1" xmlns="http://www.w3.org/2000/svg" xmlns:xlink="http://www.w3.org/1999/xlink">
    <!-- Generator: Sketch 50.2 (55047) - http://www.bohemiancoding.com/sketch -->
    <desc>Created with Sketch.</desc>
    <defs></defs>
    <g id="MVP-v2-master" stroke="none" stroke-width="1" fill="none" fill-rule="evenodd">
        <g id="Pause---Page-with-Otranscribe-functionality" transform="translate(-845.000000, -261.000000)" fill="#414965">
            <g id="add-tag-comment" transform="translate(251.000000, 261.000000)">
                <path d="M616.5,0.309208 C617.880652,0.309208 618.99998,1.470336 618.99998,2.902736 C618.99998,4.335088 617.880652,5.496208 616.5,5.496208 C615.119236,5.496208 613.999992,4.335088 613.999992,2.902736 C613.999992,1.470336 615.119236,0.309208 616.5,0.309208 Z M606.49994,0.309208 C607.880704,0.309208 608.99992,1.470336 608.99992,2.902736 C608.99992,4.335088 607.880704,5.496208 606.49994,5.496208 C605.11926,5.496208 603.99996,4.335088 603.99996,2.902736 C603.99996,1.470336 605.11926,0.309208 606.49994,0.309208 Z M596.499992,0.309208 C597.880644,0.309208 598.999972,1.470336 598.999972,2.902736 C598.999972,4.335088 597.880644,5.496208 596.499992,5.496208 C595.119228,5.496208 593.999984,4.335088 593.999984,2.902736 C593.999984,1.470336 595.119228,0.309208 596.499992,0.309208 Z" id="menu"></path>
            </g>
        </g>
    </g>
</svg>