
<svg width="25px" height="5px" viewBox="0 0 25 5" version="1.1" xmlns="http://www.w3.org/2000/svg" xmlns:xlink="http://www.w3.org/1999/xlink">
    <!-- Generator: Sketch 50.2 (55047) - http://www.bohemiancoding.com/sketch -->
    <desc>Created with Sketch.</desc>
    <defs></defs>
    <g id="MVP-v2-master" stroke="none" stroke-width="1" fill="none" fill-rule="evenodd">
        <g id="My-Files" transform="translate(-1224.000000, -300.000000)" fill="#C0C5D8">
            <g id="Documents" transform="translate(295.000000, 220.000000)">
                <g id="Group-2" transform="translate(2.000000, 44.000000)">
                    <g id="Card-menu-" transform="translate(927.000000, 36.000000)">
                        <path d="M22.499804,3.99680289e-15 C23.880568,3.99680289e-15 24.999812,1.119296 24.999812,2.5 C24.999812,3.880704 23.880568,5 22.499804,5 C21.119152,5 19.999824,3.880704 19.999824,2.5 C19.999824,1.119296 21.119152,3.99680289e-15 22.499804,3.99680289e-15 Z M12.499856,3.99680289e-15 C13.880536,3.99680289e-15 14.999836,1.119296 14.999836,2.5 C14.999836,3.880704 13.880536,5 12.499856,5 C11.119092,5 9.999876,3.880704 9.999876,2.5 C9.999876,1.119296 11.119092,3.99680289e-15 12.499856,3.99680289e-15 Z M2.499796,3.99680289e-15 C3.88056,3.99680289e-15 4.999888,1.119296 4.999888,2.5 C4.999888,3.880704 3.88056,5 2.499796,5 C1.119144,5 -0.000184,3.880704 -0.000184,2.5 C-0.000184,1.119296 1.119144,3.99680289e-15 2.499796,3.99680289e-15 Z" id="Menu-"></path>
                    </g>
                </g>
            </g>
        </g>
    </g>
</svg>