<svg xmlns:xlink="http://www.w3.org/1999/xlink" width="19px" height="10px" viewBox="0 0 19 10" version="1.1"
     xmlns="http://www.w3.org/2000/svg">
    <!-- Generator: Sketch 50.2 (55047) - http://www.bohemiancoding.com/sketch -->
    <desc>Created with Sketch.</desc>
    <defs>
        <path d="M3.02899151,1.06739491 L7.14169025,3.53501415 C8.08885078,4.10331047 8.39598091,5.33183098 7.82768459,6.27899151 C7.65878506,6.56049072 7.42318946,6.79608633 7.14169025,6.96498585 L3.02899151,9.43260509 C2.08183098,10.0009014 0.853310468,9.69377128 0.285014149,8.74661075 C0.0985156667,8.43577995 4.88481174e-16,8.08010713 4.4408921e-16,7.71761924 L8.8817842e-16,2.78238076 C7.52907669e-16,1.67781126 0.8954305,0.782380758 2,0.782380758 C2.36248789,0.782380758 2.71816071,0.880896425 3.02899151,1.06739491 Z M13.0289915,1.06739491 L17.1416902,3.53501415 C18.0888508,4.10331047 18.3959809,5.33183098 17.8276846,6.27899151 C17.6587851,6.56049072 17.4231895,6.79608633 17.1416902,6.96498585 L13.0289915,9.43260509 C12.081831,10.0009014 10.8533105,9.69377128 10.2850141,8.74661075 C10.0985157,8.43577995 10,8.08010713 10,7.71761924 L10,2.78238076 C10,1.67781126 10.8954305,0.782380758 12,0.782380758 C12.3624879,0.782380758 12.7181607,0.880896425 13.0289915,1.06739491 Z"
              id="path-1"></path>
    </defs>
    <g id="MVP-v2-master" stroke="none" stroke-width="1" fill="none" fill-rule="evenodd">
        <g id="Pause---Page-with-Otranscribe-functionality" transform="translate(-334.000000, -147.000000)">
            <g id="Group-5" transform="translate(213.000000, 117.000000)">
                <g id="player/controls/for" transform="translate(121.000000, 29.000000)">
                    <g transform="translate(0.000000, 0.750000)">
                        <mask id="mask-2" fill="white">
                            <use xlink:href="#path-1"></use>
                        </mask>
                        <use id="Combined-Shape" fill="#93A8B3" xlink:href="#path-1"></use>
                        <g id="colors/grey" mask="url(#mask-2)" fill="#93A8B3">
                            <g transform="translate(0.000000, -0.750000)" id="Rectangle-2-Copy">
                                <rect x="0" y="0" width="20" height="12"></rect>
                            </g>
                        </g>
                    </g>
                </g>
            </g>
        </g>
    </g>
</svg>