
<svg width="26px" height="26px" viewBox="0 0 26 26" version="1.1" xmlns="http://www.w3.org/2000/svg" xmlns:xlink="http://www.w3.org/1999/xlink">
    <!-- Generator: Sketch 50.2 (55047) - http://www.bohemiancoding.com/sketch -->
    <desc>Created with Sketch.</desc>
    <defs></defs>
    <g id="MVP-v2-master" stroke="none" stroke-width="1" fill="none" fill-rule="evenodd">
        <g id="Record-Step-1-of-3" transform="translate(-893.000000, -436.000000)" fill="#848DAF">
            <g id="Lightbox" transform="translate(425.000000, 141.000000)">
                <g id="Group-3" transform="translate(149.000000, 282.000000)">
                    <path d="M337.256168,24.9061967 L332.49369,24.9061967 L332.49369,20.143718 C332.49369,19.7060235 332.138772,19.3499716 331.699943,19.3499716 C331.262249,19.3499716 330.906197,19.7060235 330.906197,20.143718 L330.906197,24.9061967 L326.143718,24.9061967 C325.70489,24.9061967 325.349972,25.2611147 325.349972,25.6999431 C325.349972,26.1387715 325.70489,26.4936896 326.143718,26.4936896 L330.906197,26.4936896 L330.906197,31.2561682 C330.906197,31.6949966 331.262249,32.0499147 331.699943,32.0499147 C332.138772,32.0499147 332.49369,31.6949966 332.49369,31.2561682 L332.49369,26.4936896 L337.256168,26.4936896 C337.694997,26.4936896 338.049915,26.1387715 338.049915,25.6999431 C338.049915,25.2611147 337.694997,24.9061967 337.256168,24.9061967 M331.699943,36.8373397 C325.572221,36.8373397 320.587493,31.8276657 320.587493,25.6999431 C320.587493,19.5722206 325.572221,14.5874929 331.699943,14.5874929 C337.827666,14.5874929 342.812393,19.5722206 342.812393,25.6999431 C342.812393,31.8276657 337.827666,36.8373397 331.699943,36.8373397 M331.699943,13 C324.686626,13 319,18.6866263 319,25.6999431 C319,32.7143938 324.686626,38.3998862 331.699943,38.3998862 C338.714394,38.3998862 344.399886,32.7143938 344.399886,25.6999431 C344.399886,18.6866263 338.714394,13 331.699943,13" id="Icon"></path>
                </g>
            </g>
        </g>
    </g>
</svg>