
<svg width="13px" height="20px" viewBox="0 0 13 20" version="1.1" xmlns="http://www.w3.org/2000/svg" xmlns:xlink="http://www.w3.org/1999/xlink">
    <!-- Generator: Sketch 50.2 (55047) - http://www.bohemiancoding.com/sketch -->
    <desc>Created with Sketch.</desc>
    <defs></defs>
    <g id="Symbols" stroke="none" stroke-width="1" fill="none" fill-rule="evenodd">
        <g id="Active-record-button" transform="translate(-13.000000, -8.000000)" fill="#FFFFFF" fill-rule="nonzero">
            <g id="Mic">
                <path d="M17,24.5944 L17,26.9 L15.5,26.9 C15.2238576,26.9 15,27.1462434 15,27.45 C15,27.7537566 15.2238576,28 15.5,28 L20.5,28 C20.7761424,28 21,27.7537566 21,27.45 C21,27.1462434 20.7761424,26.9 20.5,26.9 L19,26.9 L19,24.5878 C21.083,24.1357 23,22.2811 23,19.2 L23,17.55 C23,17.2462434 22.7761424,17 22.5,17 C22.2238576,17 22,17.2462434 22,17.55 L22,19.2 C22,22.0886 19.987,23.6 18,23.6 C16.073,23.6 14,22.2228 14,19.2 L14,17.55 C14,17.2462434 13.7761424,17 13.5,17 C13.2238576,17 13,17.2462434 13,17.55 L13,19.2 C13,22.324 14.883,24.1566 17,24.5944 Z M18,21 C16.895,21 16,20.0155 16,18.8 L16,12.2 C16,10.9845 16.895,10 18,10 C19.105,10 20,10.9845 20,12.2 L20,18.8 C20,20.0155 19.105,21 18,21 Z M24.5,11 C23.6715729,11 23,10.3284271 23,9.5 C23,8.67157288 23.6715729,8 24.5,8 C25.3284271,8 26,8.67157288 26,9.5 C26,10.3284271 25.3284271,11 24.5,11 Z"></path>
            </g>
        </g>
    </g>
</svg>