
<svg width="15px" height="16px" viewBox="0 0 15 16" version="1.1" xmlns="http://www.w3.org/2000/svg" xmlns:xlink="http://www.w3.org/1999/xlink">
    <!-- Generator: Sketch 50.2 (55047) - http://www.bohemiancoding.com/sketch -->
    <desc>Created with Sketch.</desc>
    <defs></defs>
    <g id="MVP2-" stroke="none" stroke-width="1" fill="none" fill-rule="evenodd">
        <g id="Shell---hidden-nav" transform="translate(-55.000000, -270.000000)">
            <g id="Content-area" transform="translate(56.000000, 150.000000)">
                <g id="Timestamps" transform="translate(0.000000, 120.000000)">
                    <g id="Delete-timestamp-on-hover" transform="translate(0.000000, 1.000000)">
                        <path d="M6.635225,-0.03032 C10.406,-0.03032 13.46288,3.225808 13.46288,7.242416 C13.46288,11.259024 10.406,14.51512 6.635225,14.51512 C2.864465,14.51512 -0.192415,11.259024 -0.192415,7.242416 C-0.192415,3.225808 2.864465,-0.03032 6.635225,-0.03032 Z" id="Ellipse-3" fill="#D95354"></path>
                        <path d="M8.995918,4.17206915 L6.49989495,6.66801729 L4.0038719,4.17206915 C3.77443948,3.94264362 3.40213705,3.94264362 3.17270463,4.17206915 C2.94243179,4.40149469 2.94243179,4.77462633 3.17270463,5.00405186 L5.66788726,7.5 L3.17270463,9.99594814 C2.94243179,10.2253737 2.94243179,10.5976649 3.17270463,10.8279308 C3.40213705,11.0573564 3.77443948,11.0573564 4.0038719,10.8279308 L6.49989495,8.33198271 L8.995918,10.8279308 C9.22619083,11.0573564 9.59849326,11.0573564 9.82792568,10.8279308 C10.0573581,10.5976649 10.0573581,10.2253737 9.82792568,9.99594814 L7.33190263,7.5 L9.82792568,5.00405186 C10.0573581,4.77462633 10.0573581,4.40149469 9.82792568,4.17206915 C9.59849326,3.94264362 9.22619083,3.94264362 8.995918,4.17206915 Z" id="Path" fill="#FFFFFF"></path>
                    </g>
                </g>
            </g>
        </g>
    </g>
</svg>