
<svg width="31px" height="14px" viewBox="0 0 31 14" version="1.1" xmlns="http://www.w3.org/2000/svg" xmlns:xlink="http://www.w3.org/1999/xlink">
    <!-- Generator: Sketch 51.2 (57519) - http://www.bohemiancoding.com/sketch -->
    <desc>Created with Sketch.</desc>
    <defs></defs>
    <g id="MVP-v2-master-GRID" stroke="none" stroke-width="1" fill="none" fill-rule="evenodd">
        <g id="Dashboard" transform="translate(-937.000000, -735.000000)">
            <g id="Group-3" transform="translate(191.000000, 211.000000)">
                <g id="Group-7" transform="translate(747.000000, 523.000000)">
                    <g id="Command">
                        <text id="+-J" font-family=".AppleSystemUIFont" font-size="11" font-weight="normal" fill="#848DAF">
                            <tspan x="14" y="11">+ J</tspan>
                        </text>
                        <g id="Layer_1" transform="translate(0.000000, 2.000000)" stroke="#848DAF" stroke-linecap="round" stroke-linejoin="round">
                            <path d="M8.03128822,8 L8.03128822,1.95824689 C8.01110899,1.18149616 8.48164577,0.470358358 9.22142609,0.159552176 C9.96120641,-0.151254007 10.8228411,0.00019448843 11.4007755,0.542613811 C11.97871,1.08503313 12.1578001,1.91035508 11.8537518,2.63011672 C11.5497034,3.34987835 10.8230932,3.82067891 10.0159224,3.82092176 L4,3.82092176" id="Shape"></path>
                            <path d="M3.99969877,8 L3.99969877,2.05471767 C4.01539906,1.14163433 3.41594268,0.330044997 2.53363925,0.0698555527 C1.83917979,-0.117561025 1.09673736,0.0783171801 0.587837616,0.5832154 C0.078937875,1.08811362 -0.118492743,1.82471816 0.0704091859,2.51371704 C0.332660735,3.38908284 1.15068224,3.98382565 2.07100213,3.96824881 L3.99969877,3.96824881" id="Shape"></path>
                            <path d="M3.96824881,8.31289387 L3.96824881,9.92899787 C3.98382565,10.8493178 3.38908284,11.6673393 2.51371704,11.9295908 C1.82471816,12.1184927 1.08811362,11.9210621 0.5832154,11.4121624 C0.0783171801,10.9032626 -0.117561025,10.1608202 0.0698555527,9.46636075 C0.330044997,8.58405732 1.14163433,7.98460094 2.05471767,8.00030123 L8,8.00030123" id="Shape"></path>
                            <path d="M8.00030123,8.62548652 L8.00030123,9.92899787 C7.98460094,10.8493178 8.58405732,11.6673393 9.46636075,11.9295908 C10.1608202,12.1184927 10.9032626,11.9210621 11.4121624,11.4121624 C11.9210621,10.9032626 12.1184927,10.1608202 11.9295908,9.46636075 C11.6673393,8.58405732 10.8493178,7.98460094 9.92899787,8.00030123 L8.00030123,8.00030123" id="Shape"></path>
                        </g>
                    </g>
                </g>
            </g>
        </g>
    </g>
</svg>