
<svg width="24px" height="21px" viewBox="0 0 24 21" version="1.1" xmlns="http://www.w3.org/2000/svg" xmlns:xlink="http://www.w3.org/1999/xlink">
    <!-- Generator: Sketch 50.2 (55047) - http://www.bohemiancoding.com/sketch -->
    <desc>Created with Sketch.</desc>
    <defs></defs>
    <g id="MVP-v2-master-GRID" stroke="none" stroke-width="1" fill="none" fill-rule="evenodd">
        <g id="Dashboard" transform="translate(-1187.000000, -254.000000)">
            <g id="Group-3" transform="translate(1092.000000, 120.000000)">
                <g id="High-level-metrics-" transform="translate(1.000000, 123.000000)">
                    <g id="Group-11" transform="translate(81.000000, 11.000000)">
                        <g id="Tags-Icon" transform="translate(13.000000, 0.000000)">
                            <path d="M2.41272,15.361782 L21.72636,15.361782 C22.902816,15.361782 23.856528,16.582812 23.856528,18.089046 C23.856528,19.595286 22.902816,20.816316 21.72636,20.816316 L2.41272,20.816316 C1.236264,20.816316 0.282576,19.595286 0.282576,18.089046 C0.282576,16.582812 1.236264,15.361782 2.41272,15.361782 Z" id="Rectangle-14" fill="#EB4986" opacity="0.5"></path>
                            <path d="M2.41272,0.361782 L21.72636,0.361782 C22.902816,0.361782 23.856528,1.582812 23.856528,3.089046 L23.856528,3.089046 C23.856528,4.595286 22.902816,5.816316 21.72636,5.816316 L2.41272,5.816316 C1.236264,5.816316 0.282576,4.595286 0.282576,3.089046 L0.282576,3.089046 C0.282576,1.582812 1.236264,0.361782 2.41272,0.361782 Z" id="Rectangle-14" fill-opacity="0.3" fill="#46C4F3" opacity="0.85"></path>
                            <path d="M2.41272,8.361782 L21.72636,8.361782 C22.902816,8.361782 23.856528,9.582812 23.856528,11.089046 L23.856528,11.089046 C23.856528,12.595286 22.902816,13.816316 21.72636,13.816316 L2.41272,13.816316 C1.236264,13.816316 0.282576,12.595286 0.282576,11.089046 L0.282576,11.089046 C0.282576,9.582812 1.236264,8.361782 2.41272,8.361782 Z" id="Rectangle-14" fill="#7ACBBD" opacity="0.75"></path>
                        </g>
                    </g>
                </g>
            </g>
        </g>
    </g>
</svg>